<svg xmlns="http://www.w3.org/2000/svg" xmlns:xlink="http://www.w3.org/1999/xlink" id="Capa_1" x="0" y="0" version="1.1" viewBox="0 0 1845 709" style="enable-background:new 0 0 1845 709" xml:space="preserve"><style type="text/css">.st0{fill:#fff}.st1{fill:#ffd000}</style><path d="M429.2,650.7c-21.3,0-41-3.7-59.1-11c-17.9-7.6-33.5-18-46.9-31.1c-13.4-13.1-23.8-28.4-31.1-45.7	c-7.4-17.3-11-35.8-11-55.5c0-19.7,3.7-38.2,11-55.5c7.6-17.3,18-32.5,31.1-45.7c13.4-13.1,29.1-23.4,47.3-30.7	c18.1-7.6,37.8-11.4,59.1-11.4c21.3,0,41,3.7,59.1,11c18.1,7.3,33.7,17.6,46.9,30.7c13.4,13.1,23.8,28.4,31.1,45.7	c7.6,17.1,11.4,35.4,11.4,55.1c0,20.5-3.9,39.5-11.8,57.1c-7.6,17.3-18.2,32.5-31.9,45.7c-13.7,12.9-29.5,23-47.7,30.3	C468.9,647,449.7,650.7,429.2,650.7z M429.6,581.8c14.2,0,26.5-3.4,37-10.2c10.5-7.1,18.6-16.3,24.4-27.6	c5.8-11.3,8.7-23.5,8.7-36.6c0-10-1.7-19.4-5.1-28.4c-3.4-8.9-8.3-16.8-14.6-23.6c-6.3-6.8-13.8-12.2-22.4-16.1	c-8.4-4.2-17.9-6.3-28.4-6.3c-13.9,0-26.1,3.4-36.6,10.2c-10.5,6.6-18.6,15.5-24.4,26.8c-5.8,11-8.7,23.2-8.7,36.6	c0,13.1,2.9,25.5,8.7,37c6,11.5,14.3,20.9,24.8,28C403.8,578.3,416,581.8,429.6,581.8z" class="st0"/><path d="M612.8,645.1v-213l74.8,29.1c8.4-10.5,17.9-18.8,28.4-24.8c10.5-6,22.4-9.1,35.8-9.1c12.6,0,24.4,2.9,35.4,8.7	c11,5.5,19.4,14.2,25.2,26c9.2-11,19.4-19.6,30.7-25.6c11.6-6,25.2-9.1,41-9.1c15.2,0,28.2,3.5,39,10.6c10.8,7.1,19,16.5,24.8,28.3	c5.8,11.8,8.7,24.8,8.7,39v139.8h-74.8V529.4c0-11.8-2.8-20.6-8.3-26.4c-5.5-6-12.5-9.1-20.9-9.1c-6.6,0-12.2,1.7-16.9,5.1	c-4.5,3.2-7.9,7.5-10.2,13c-2.4,5.3-3.5,11-3.5,17.3v115.8h-74.8V529.4c0-11.6-2.8-20.3-8.3-26.4c-5.5-6-12.5-9.1-20.9-9.1	c-5.5,0-10.6,1.3-15.4,3.9c-4.5,2.6-8.1,6.6-11,11.8c-2.6,5.2-3.9,11.8-3.9,19.7v115.8H612.8z" class="st0"/><path d="M995,645.1v-213l74.8,29.9c6.8-8.9,15.4-16.9,25.6-24c10.2-7.1,23-10.6,38.2-10.6c15,0,27.8,3.4,38.6,10.2	s19,16.1,24.8,28c6,11.8,9.1,25.2,9.1,40.2v139.4h-74.8V529.8c0-7.9-1.3-14.4-3.9-19.7c-2.6-5.3-6.2-9.2-10.6-11.8	c-4.5-2.9-9.6-4.3-15.4-4.3c-5.5,0-10.8,1.4-15.8,4.3c-4.7,2.6-8.5,6.6-11.4,11.8c-2.9,5.3-4.3,11.8-4.3,19.7v115.4H995z" class="st0"/><path d="M1247.8,645.1V507.3V369.5h76.8v275.6H1247.8z" class="st0"/><path d="M1367.3,645.1v-213l74.8,29.9c6.8-8.9,15.4-16.9,25.6-24c10.2-7.1,23-10.6,38.2-10.6c15,0,27.8,3.4,38.6,10.2	c10.8,6.8,19,16.1,24.8,28c6,11.8,9.1,25.2,9.1,40.2v139.4h-74.8V529.8c0-7.9-1.3-14.4-3.9-19.7c-2.6-5.3-6.2-9.2-10.6-11.8	c-4.5-2.9-9.6-4.3-15.4-4.3c-5.5,0-10.8,1.4-15.8,4.3c-4.7,2.6-8.5,6.6-11.4,11.8s-4.3,11.8-4.3,19.7v115.4H1367.3z" class="st0"/><path d="M1710.6,708.9c-18.9,0-35.4-2.1-49.6-6.3c-13.9-4.2-28.6-10.2-44.1-18.1v-59.1c7.3,4.5,16,9.1,26,13.8	c10.2,4.5,21.1,8.1,32.7,11c11.6,3.2,23,4.7,34.3,4.7c17.3,0,31.9-4.1,43.7-12.2c11.8-8.1,17.7-21.7,17.7-40.6V594	c-7.6,8.9-16.5,16.5-26.8,22.8s-23.4,9.5-39.4,9.5c-17.1,0-32.8-4.1-47.3-12.2c-14.2-8.1-25.6-19.6-34.3-34.3	c-8.4-15-12.6-32.7-12.6-53.2c0-20.5,4.2-38.1,12.6-52.8c8.7-15,20.2-26.4,34.7-34.3c14.4-8.1,30.2-12.2,47.3-12.2	c15,0,27.4,2.9,37.4,8.7c10,5.8,19,12.9,27.2,21.3l74.8-25.2v161.4c0,25.7-5.8,47.1-17.3,64.2c-11.5,17.3-27.4,30.2-47.6,38.6	C1759.7,704.7,1736.6,708.9,1710.6,708.9z M1727.9,568c8.4,0,15.9-1.8,22.5-5.5c6.6-3.7,11.7-8.7,15.3-15c3.7-6.3,5.5-13.4,5.5-21.3	s-1.8-14.8-5.5-20.9c-3.7-6-8.8-10.8-15.3-14.2c-6.6-3.7-14.1-5.5-22.5-5.5c-8.4,0-15.9,1.8-22.4,5.5c-6.6,3.7-11.7,8.7-15.4,15	c-3.7,6-5.5,13.1-5.5,21.3c0,8.1,1.8,15.2,5.5,21.3c3.9,6,9.2,10.8,15.8,14.2C1712.5,566.3,1719.8,568,1727.9,568z" class="st0"/><path d="M430.2,328.3C206.1,321.2,219.8,114.4,218,0c-6.6,284.8-68.3,317-218,328.4c215.6,0,213.9,225.9,218.8,319.8	C222.5,412,308,328.4,430.2,328.3z" class="st1"/></svg>